{"title":"The Visit 2015 1080p HC WEBRIP x264 AAC-SS mp4","uid":12489817,"size":1968797265,"categoryP":"video","categoryS":"hd___movies","magnet":"?xt=urn:btih:3da36bc761d96f1014b85ad846ad67d4420ab842&amp;dn=The+Visit+2015+1080p+HC+WEBRIP+x264+AAC-SS+mp4&amp;tr=udp%3A%2F%2Ftracker.leechers-paradise.org%3A6969&amp;tr=udp%3A%2F%2Fzer0day.ch%3A1337&amp;tr=udp%3A%2F%2Fopen.demonii.com%3A1337&amp;tr=udp%3A%2F%2Ftracker.coppersurfer.tk%3A6969&amp;tr=udp%3A%2F%2Fexodus.desync.com%3A6969","seeders":31,"leechers":7,"uploader":"makintos13","files":1,"time":1443154606,"description":"screens:\r\n \nhttp://imgmak.com/NY\r\n \nhttp://imgmak.com/N0\r\n \nhttp://imgmak.com/NA\r\n\r\n:::::::::::::\r\n\r\normat : MPEG-4\r\nFormat profile : Base Media\r\nCodec ID : isom\r\nFile size : 1.83 GiB\r\nDuration : 1h 33mn\r\nOverall bit rate : 2 794 Kbps\r\nWriting application : Lavf56.25.101\r\n\r\nVideo\r\nID : 1\r\nFormat : AVC\r\nFormat/Info : Advanced Video Codec\r\nFormat profile :   \r\nFormat settings, CABAC : Yes\r\nFormat settings, ReFrames : 4 frames\r\nCodec ID : avc1\r\nCodec ID/Info : Advanced Video Coding\r\nDuration : 1h 33mn\r\nBit rate : 2 599 Kbps\r\nWidth : 1 920 pixels\r\nHeight : 1 040 pixels\r\nDisplay aspect ratio : 1.85:1\r\nFrame rate mode : Constant\r\nFrame rate : 23.976 fps\r\nColor space : YUV\r\nChroma subsampling : 4:2:0\r\nBit depth : 8 bits\r\nScan type : Progressive\r\nBits/(Pixel*Frame) : 0.054\r\nStream size : 1.70 GiB (93%)\r\nColor range : Limited\r\nColor primaries : BT.709\r\nTransfer characteristics : BT.709\r\nMatrix coefficients : BT.709\r\n\r\nAudio\r\nID : 2\r\nFormat : AAC\r\nFormat/Info : Advanced Audio Codec\r\nFormat profile : HE-AAC / LC\r\nCodec ID : 40\r\nDuration : 1h 33mn\r\nBit rate mode : Constant\r\nBit rate : 192 Kbps\r\nChannel(s) : 2 channels\r\nChannel(s)_Original : 6 channels\r\nChannel positions : Front: L C R, Side: L R, LFE\r\nSampling rate : 48.0 KHz / 24.0 KHz\r\nCompression mode : Lossy\r\nStream size : 129 MiB (7%","torrent":{"xt":"urn:btih:3da36bc761d96f1014b85ad846ad67d4420ab842","amp;dn":"The+Visit+2015+1080p+HC+WEBRIP+x264+AAC-SS+mp4","amp;tr":["udp%3A%2F%2Ftracker.leechers-paradise.org%3A6969","udp%3A%2F%2Fzer0day.ch%3A1337","udp%3A%2F%2Fopen.demonii.com%3A1337","udp%3A%2F%2Ftracker.coppersurfer.tk%3A6969","udp%3A%2F%2Fexodus.desync.com%3A6969"],"infoHash":"3da36bc761d96f1014b85ad846ad67d4420ab842","infoHashBuffer":{"type":"Buffer","data":[61,163,107,199,97,217,111,16,20,184,90,216,70,173,103,212,66,10,184,66]},"announce":[],"urlList":[]}}